<svg xmlns="http://www.w3.org/2000/svg" viewBox="0 0 64 64">
  <defs>
    <linearGradient id="bg" x1="0" y1="0" x2="1" y2="1">
      <stop offset="0%" stop-color="#0f172a" />
      <stop offset="100%" stop-color="#1e293b" />
    </linearGradient>
    <linearGradient id="body" x1="0" y1="0" x2="1" y2="1">
      <stop offset="0%" stop-color="#38bdf8" />
      <stop offset="100%" stop-color="#22d3ee" />
    </linearGradient>
  </defs>
  <rect width="64" height="64" rx="12" fill="url(#bg)" />
  <path
    d="M15 37c0-8 6-14 14-14h6c8 0 14 6 14 14 0 5-4 9-8 9-2 0-4-1-5-3l-2-3h-4l-2 3c-1 2-3 3-5 3-4 0-8-4-8-9z"
    fill="url(#body)"
  />
  <rect x="22" y="32" width="8" height="2.5" rx="1.25" fill="#0f172a" />
  <rect x="24.75" y="29.25" width="2.5" height="8" rx="1.25" fill="#0f172a" />
  <circle cx="40" cy="32" r="1.8" fill="#0f172a" />
  <circle cx="45" cy="34.5" r="1.8" fill="#0f172a" />
  <circle cx="35" cy="34.5" r="1.8" fill="#0f172a" />
</svg>
